<?xml version="1.0" standalone="no"?><!DOCTYPE svg PUBLIC "-//W3C//DTD SVG 1.1//EN" "http://www.w3.org/Graphics/SVG/1.1/DTD/svg11.dtd"><svg t="1614957277030" class="icon" viewBox="0 0 1024 1024" version="1.1" xmlns="http://www.w3.org/2000/svg" p-id="14488" xmlns:xlink="http://www.w3.org/1999/xlink" width="200" height="200"><defs><style type="text/css"></style></defs><path d="M725.333333 725.333333V128a85.333333 85.333333 0 0 0-85.333333-85.333333H394.24a128 128 0 0 0-90.453333 37.546666L122.88 261.12A128 128 0 0 0 85.333333 351.573333V725.333333a85.333333 85.333333 0 0 0 85.333334 85.333334h469.333333a85.333333 85.333333 0 0 0 85.333333-85.333334zM170.666667 384h213.333333a42.666667 42.666667 0 0 0 42.666667-42.666667V128h213.333333v597.333333H170.666667z m362.666666 128h-256a21.333333 21.333333 0 0 0-21.333333 21.333333v42.666667a21.333333 21.333333 0 0 0 21.333333 21.333333h256a21.333333 21.333333 0 0 0 21.333334-21.333333v-42.666667a21.333333 21.333333 0 0 0-21.333334-21.333333zM810.666667 213.333333v597.333334a85.333333 85.333333 0 0 1-85.333334 85.333333H256a85.333333 85.333333 0 0 0 85.333333 85.333333h384a170.666667 170.666667 0 0 0 170.666667-170.666666V298.666667a85.333333 85.333333 0 0 0-85.333333-85.333334z" p-id="14489"></path></svg>